<svg width="53" height="26" viewBox="0 0 53 26" fill="none" xmlns="http://www.w3.org/2000/svg">
<path d="M4.85 20.35C1.8 20.35 0.8 18.35 0.8 15.375V0.0249994H5.25V15.525C5.25 16.475 5.675 16.75 6.025 16.75C6.175 16.75 6.275 16.75 6.525 16.7L7.05 19.975C6.575 20.175 5.85 20.35 4.85 20.35ZM15.2758 20.35C11.6508 20.35 8.30078 17.6 8.30078 12.875C8.30078 8.175 11.6508 5.425 15.2758 5.425C18.8758 5.425 22.2258 8.175 22.2258 12.875C22.2258 17.6 18.8758 20.35 15.2758 20.35ZM15.2758 16.75C16.9258 16.75 17.6758 15.25 17.6758 12.875C17.6758 10.525 16.9258 9.025 15.2758 9.025C13.6008 9.025 12.8508 10.525 12.8508 12.875C12.8508 15.25 13.6008 16.75 15.2758 16.75ZM30.1188 25.975C26.8438 25.975 24.1688 24.95 24.1688 22.4C24.1688 21.225 24.8438 20.275 26.1688 19.6V19.475C25.4188 18.975 24.8687 18.225 24.8687 17.025C24.8687 16.025 25.5188 15.025 26.4688 14.375V14.275C25.4438 13.575 24.5188 12.25 24.5188 10.575C24.5188 7.125 27.3938 5.425 30.4688 5.425C31.2938 5.425 32.0688 5.55 32.7188 5.775H37.9438V9H35.7688C35.9688 9.4 36.1438 10.05 36.1438 10.725C36.1438 14.05 33.6188 15.5 30.4688 15.5C29.9938 15.5 29.4188 15.425 28.7938 15.25C28.4938 15.55 28.3438 15.75 28.3438 16.25C28.3438 16.9 28.9188 17.2 30.4438 17.2H32.6938C36.1938 17.2 38.1938 18.275 38.1938 20.85C38.1938 23.85 35.0688 25.975 30.1188 25.975ZM30.4688 12.825C31.5188 12.825 32.2938 12.075 32.2938 10.575C32.2938 9.15 31.5188 8.4 30.4688 8.4C29.4438 8.4 28.6688 9.15 28.6688 10.575C28.6688 12.075 29.4438 12.825 30.4688 12.825ZM30.8188 23.2C32.6438 23.2 33.9188 22.525 33.9188 21.625C33.9188 20.775 33.1688 20.6 31.8438 20.6H30.4938C29.4688 20.6 28.9188 20.55 28.4688 20.425C28.0188 20.825 27.8188 21.225 27.8188 21.7C27.8188 22.7 29.0188 23.2 30.8188 23.2ZM46.0375 20.35C42.4125 20.35 39.0625 17.6 39.0625 12.875C39.0625 8.175 42.4125 5.425 46.0375 5.425C49.6375 5.425 52.9875 8.175 52.9875 12.875C52.9875 17.6 49.6375 20.35 46.0375 20.35ZM46.0375 16.75C47.6875 16.75 48.4375 15.25 48.4375 12.875C48.4375 10.525 47.6875 9.025 46.0375 9.025C44.3625 9.025 43.6125 10.525 43.6125 12.875C43.6125 15.25 44.3625 16.75 46.0375 16.75Z" fill="black"/>
</svg>
